<svg xmlns="http://www.w3.org/2000/svg" xmlns:xlink="http://www.w3.org/1999/xlink" width="1556.68" height="997.617" viewBox="0 0 1556.68 997.617"><defs><style>.a{fill:#f39d93;}.b{fill:#79bac0;}.c{filter:url(#c);}.d{filter:url(#a);}</style><filter id="a" x="0" y="128.808" width="740" height="740.001" filterUnits="userSpaceOnUse"><feOffset dy="3" input="SourceAlpha"/><feGaussianBlur stdDeviation="3" result="b"/><feFlood flood-opacity="0.161"/><feComposite operator="in" in2="b"/><feComposite in="SourceGraphic"/></filter><filter id="c" x="553.333" y="0" width="1003.347" height="997.617" filterUnits="userSpaceOnUse"><feOffset dy="3" input="SourceAlpha"/><feGaussianBlur stdDeviation="3" result="d"/><feFlood flood-opacity="0.161"/><feComposite operator="in" in2="d"/><feComposite in="SourceGraphic"/></filter></defs><g transform="translate(-248 -182.192)"><g class="d" transform="matrix(1, 0, 0, 1, 248, 182.19)"><path class="a" d="M420,770a366.792,366.792,0,0,1-36.91-1.864A360.46,360.46,0,0,1,60.864,445.91a366.283,366.283,0,0,1,.44-77.92A358.716,358.716,0,0,1,93.86,254.034,129.6,129.6,0,0,0,252.571,89.091,358.564,358.564,0,0,1,375.383,50.729a366.2,366.2,0,0,1,81.528-.866A360.461,360.461,0,0,1,779.136,372.09a366.4,366.4,0,0,1,0,73.82A360.461,360.461,0,0,1,456.91,768.137,366.79,366.79,0,0,1,420,770Z" transform="translate(-50 86.81)"/></g><g class="c" transform="matrix(1, 0, 0, 1, 248, 182.19)"><path class="b" d="M510.5,722A361.719,361.719,0,0,1,179.471,506.3a134.55,134.55,0,0,0-9.989-256.7c-.476-1.469-.97-2.961-1.469-4.433A361.2,361.2,0,0,1,510.5,0a367.829,367.829,0,0,1,36.961,1.864,361.85,361.85,0,0,1,296.13,218.619A358.531,358.531,0,0,1,870.134,324.09a365.852,365.852,0,0,1,0,73.82A360.921,360.921,0,0,1,547.462,720.136,367.829,367.829,0,0,1,510.5,722Z" transform="matrix(-0.53, -0.85, 0.85, -0.53, 1024.42, 1128.1)"/></g></g></svg>