<svg xmlns="http://www.w3.org/2000/svg" xmlns:xlink="http://www.w3.org/1999/xlink" width="1003.347" height="997.617" viewBox="0 0 1003.347 997.617"><defs><style>.a{fill:#79bac0;}.b{filter:url(#a);}</style><filter id="a" x="0" y="0" width="1003.347" height="997.617" filterUnits="userSpaceOnUse"><feOffset dy="3" input="SourceAlpha"/><feGaussianBlur stdDeviation="3" result="b"/><feFlood flood-opacity="0.161"/><feComposite operator="in" in2="b"/><feComposite in="SourceGraphic"/></filter></defs><g class="b" transform="matrix(1, 0, 0, 1, 0, 0)"><path class="a" d="M510.5,722A361.719,361.719,0,0,1,179.471,506.3a134.55,134.55,0,0,0-9.989-256.7c-.476-1.469-.97-2.961-1.469-4.433A361.2,361.2,0,0,1,510.5,0a367.829,367.829,0,0,1,36.961,1.864,361.85,361.85,0,0,1,296.13,218.619A358.531,358.531,0,0,1,870.134,324.09a365.852,365.852,0,0,1,0,73.82A360.921,360.921,0,0,1,547.462,720.136,367.829,367.829,0,0,1,510.5,722Z" transform="matrix(-0.53, -0.85, 0.85, -0.53, 471.09, 1128.1)"/></g></svg>