<svg xmlns="http://www.w3.org/2000/svg" xmlns:xlink="http://www.w3.org/1999/xlink" width="740" height="740.001" viewBox="0 0 740 740.001"><defs><style>.a{fill:#f39d93;}.b{filter:url(#a);}</style><filter id="a" x="0" y="0" width="740" height="740.001" filterUnits="userSpaceOnUse"><feOffset dy="3" input="SourceAlpha"/><feGaussianBlur stdDeviation="3" result="b"/><feFlood flood-opacity="0.161"/><feComposite operator="in" in2="b"/><feComposite in="SourceGraphic"/></filter></defs><g class="b" transform="matrix(1, 0, 0, 1, 0, 0)"><path class="a" d="M420,770a366.792,366.792,0,0,1-36.91-1.864A360.46,360.46,0,0,1,60.864,445.91a366.283,366.283,0,0,1,.44-77.92A358.716,358.716,0,0,1,93.86,254.034,129.6,129.6,0,0,0,252.571,89.091,358.564,358.564,0,0,1,375.383,50.729a366.2,366.2,0,0,1,81.528-.866A360.461,360.461,0,0,1,779.136,372.09a366.4,366.4,0,0,1,0,73.82A360.461,360.461,0,0,1,456.91,768.137,366.79,366.79,0,0,1,420,770Z" transform="translate(-50 -42)"/></g></svg>